<svg width="52" height="52" viewBox="0 0 52 52" fill="none" xmlns="http://www.w3.org/2000/svg">
<rect width="52" height="52" fill="#1D1D1D"/>
<path d="M25.75 45L30.625 45C33.3174 45 35.5 42.8174 35.5 40.125V40.125C35.5 37.4326 33.3174 35.25 30.625 35.25L25.75 35.25L25.75 45Z" fill="white"/>
<path d="M25.75 25.5L20.875 25.5C18.1826 25.5 16 27.6826 16 30.375V30.375C16 33.0674 18.1826 35.25 20.875 35.25L25.75 35.25L25.75 25.5Z" fill="white"/>
<path d="M25.75 6L20.875 6C18.1826 6 16 8.1826 16 10.875V10.875C16 13.5674 18.1826 15.75 20.875 15.75L25.75 15.75L25.75 6Z" fill="white"/>
<path d="M25.75 25.5L30.625 25.5C33.3174 25.5 35.5 23.3174 35.5 20.625V20.625C35.5 17.9326 33.3174 15.75 30.625 15.75L25.75 15.75L25.75 25.5Z" fill="white"/>
</svg>
